<svg width="512" height="512" viewBox="0 0 512 512" fill="none" xmlns="http://www.w3.org/2000/svg">
<path d="M232.561 338.863H380.264C384.132 338.863 387.266 341.998 387.266 345.865C387.266 349.732 384.132 352.867 380.264 352.867H232.561C228.694 352.867 225.559 349.732 225.559 345.865C225.559 341.998 228.694 338.863 232.561 338.863Z" fill="#45A29E" stroke="#45A29E"/>
<path d="M232.561 379.978H380.264C384.132 379.978 387.266 383.112 387.266 386.98C387.266 390.848 384.132 393.982 380.264 393.982H232.561C228.694 393.982 225.559 390.847 225.559 386.98C225.559 383.113 228.694 379.978 232.561 379.978Z" fill="#45A29E" stroke="#45A29E"/>
<path d="M359.466 118.018C374.716 118.018 387.138 130.361 387.265 145.582V145.817V277.391C387.265 292.719 374.794 305.191 359.465 305.191H253.357C238.029 305.191 225.557 292.72 225.557 277.391V187.424C225.557 183.557 228.692 180.422 232.559 180.422C236.426 180.422 239.561 183.556 239.561 187.424V255.999V257.42L240.451 256.312C249.3 245.289 260.816 236.614 274.036 231.162L274.631 230.917L274.246 230.401C269.245 223.707 266.281 215.409 266.281 206.431C266.281 184.305 284.283 166.302 306.41 166.302C328.537 166.302 346.54 184.304 346.54 206.431C346.54 215.41 343.576 223.708 338.575 230.401L338.19 230.917L338.785 231.162C352.005 236.614 363.521 245.289 372.37 256.312L373.26 257.42V255.999V145.817C373.26 138.211 367.072 132.023 359.465 132.023H253.357C245.75 132.023 239.562 138.21 239.562 145.817V152.349C239.562 156.216 236.427 159.351 232.56 159.351C228.693 159.351 225.558 156.217 225.558 152.349V145.817C225.558 130.489 238.029 118.018 253.358 118.018H359.466ZM240.92 282.942L240.838 283.147L240.933 283.346C243.16 287.973 247.883 291.185 253.358 291.185H359.466C364.941 291.185 369.664 287.973 371.892 283.346L371.987 283.147L371.905 282.942C363.776 262.777 346.948 247.574 326.11 241.55L325.911 241.492L325.73 241.592C319.995 244.755 313.412 246.56 306.412 246.56C299.413 246.56 292.83 244.756 287.096 241.592L286.914 241.492L286.715 241.55C265.877 247.575 249.049 262.778 240.92 282.942ZM332.537 206.432C332.537 192.026 320.818 180.307 306.412 180.307C292.006 180.307 280.287 192.026 280.287 206.432C280.287 220.838 292.006 232.557 306.412 232.557C320.817 232.557 332.537 220.838 332.537 206.432Z" fill="#45A29E" stroke="#45A29E"/>
<mask id="path-4-inside-1" fill="white">
<path d="M460.295 423.387C464.439 423.387 467.797 420.029 467.797 415.885V28.711C467.797 12.88 454.917 0 439.085 0H109.677C93.845 0 80.965 12.88 80.965 28.711V53.164H69.546C55.572 53.164 44.203 64.533 44.203 78.506C44.203 92.48 55.572 103.849 69.546 103.849H80.965V141.909H69.546C55.572 141.909 44.203 153.278 44.203 167.252C44.203 181.226 55.572 192.595 69.546 192.595H80.965V230.655H69.546C55.572 230.655 44.203 242.024 44.203 255.998C44.203 269.972 55.572 281.341 69.546 281.341H80.965V319.401H69.546C55.572 319.401 44.203 330.77 44.203 344.744C44.203 358.718 55.572 370.087 69.546 370.087H80.965V408.147H69.546C55.572 408.147 44.203 419.516 44.203 433.49C44.203 447.463 55.572 458.832 69.546 458.832H80.965V483.285C80.965 499.116 93.845 511.996 109.677 511.996H439.085C454.917 511.996 467.797 499.116 467.797 483.285V451.03C467.797 446.886 464.439 443.528 460.295 443.528C456.151 443.528 452.793 446.887 452.793 451.03V483.289C452.793 490.847 446.644 496.996 439.085 496.996H172.443V15.005H439.084C446.642 15.005 452.792 21.153 452.792 28.712V415.885C452.792 420.029 456.151 423.387 460.295 423.387V423.387ZM69.546 88.845C63.846 88.845 59.208 84.207 59.208 78.507C59.208 72.807 63.846 68.17 69.546 68.17H107.389C113.089 68.17 117.727 72.807 117.727 78.507C117.727 84.207 113.089 88.845 107.389 88.845H69.546ZM69.546 177.592C63.846 177.592 59.208 172.954 59.208 167.254C59.208 161.554 63.846 156.916 69.546 156.916H88.448C88.455 156.916 88.461 156.917 88.467 156.917C88.473 156.917 88.48 156.916 88.486 156.916H107.388C113.088 156.916 117.726 161.554 117.726 167.254C117.726 172.954 113.088 177.592 107.388 177.592H69.546ZM69.546 266.338C63.846 266.338 59.208 261.7 59.208 256C59.208 250.3 63.846 245.662 69.546 245.662H107.389C113.089 245.662 117.727 250.3 117.727 256C117.727 261.7 113.089 266.338 107.389 266.338H69.546ZM69.546 355.085C63.846 355.085 59.208 350.447 59.208 344.747C59.208 339.047 63.846 334.409 69.546 334.409H107.389C113.089 334.409 117.727 339.047 117.727 344.747C117.727 350.447 113.089 355.085 107.389 355.085H69.546ZM69.546 443.83C63.846 443.83 59.208 439.193 59.208 433.493C59.208 427.793 63.846 423.155 69.546 423.155H107.389C113.089 423.155 117.727 427.793 117.727 433.493C117.727 439.193 113.089 443.83 107.389 443.83H69.546ZM157.439 496.995H109.677C102.119 496.995 95.97 490.847 95.97 483.288V458.835H107.389C121.363 458.835 132.732 447.466 132.732 433.493C132.732 419.519 121.363 408.15 107.389 408.15H95.97V370.09H107.389C121.363 370.09 132.732 358.721 132.732 344.747C132.732 330.773 121.363 319.404 107.389 319.404H95.97V281.344H107.389C121.363 281.344 132.732 269.975 132.732 256.001C132.732 242.027 121.363 230.658 107.389 230.658H95.97V192.598H107.389C121.363 192.598 132.732 181.229 132.732 167.255C132.732 153.281 121.363 141.912 107.389 141.912H95.97V103.852H107.389C121.363 103.852 132.732 92.483 132.732 78.509C132.732 64.536 121.363 53.167 107.389 53.167H95.97V28.711C95.97 21.153 102.119 15.004 109.677 15.004H157.439V496.995Z"/>
</mask>
<path d="M460.295 423.387C464.439 423.387 467.797 420.029 467.797 415.885V28.711C467.797 12.88 454.917 0 439.085 0H109.677C93.845 0 80.965 12.88 80.965 28.711V53.164H69.546C55.572 53.164 44.203 64.533 44.203 78.506C44.203 92.48 55.572 103.849 69.546 103.849H80.965V141.909H69.546C55.572 141.909 44.203 153.278 44.203 167.252C44.203 181.226 55.572 192.595 69.546 192.595H80.965V230.655H69.546C55.572 230.655 44.203 242.024 44.203 255.998C44.203 269.972 55.572 281.341 69.546 281.341H80.965V319.401H69.546C55.572 319.401 44.203 330.77 44.203 344.744C44.203 358.718 55.572 370.087 69.546 370.087H80.965V408.147H69.546C55.572 408.147 44.203 419.516 44.203 433.49C44.203 447.463 55.572 458.832 69.546 458.832H80.965V483.285C80.965 499.116 93.845 511.996 109.677 511.996H439.085C454.917 511.996 467.797 499.116 467.797 483.285V451.03C467.797 446.886 464.439 443.528 460.295 443.528C456.151 443.528 452.793 446.887 452.793 451.03V483.289C452.793 490.847 446.644 496.996 439.085 496.996H172.443V15.005H439.084C446.642 15.005 452.792 21.153 452.792 28.712V415.885C452.792 420.029 456.151 423.387 460.295 423.387V423.387ZM69.546 88.845C63.846 88.845 59.208 84.207 59.208 78.507C59.208 72.807 63.846 68.17 69.546 68.17H107.389C113.089 68.17 117.727 72.807 117.727 78.507C117.727 84.207 113.089 88.845 107.389 88.845H69.546ZM69.546 177.592C63.846 177.592 59.208 172.954 59.208 167.254C59.208 161.554 63.846 156.916 69.546 156.916H88.448C88.455 156.916 88.461 156.917 88.467 156.917C88.473 156.917 88.48 156.916 88.486 156.916H107.388C113.088 156.916 117.726 161.554 117.726 167.254C117.726 172.954 113.088 177.592 107.388 177.592H69.546ZM69.546 266.338C63.846 266.338 59.208 261.7 59.208 256C59.208 250.3 63.846 245.662 69.546 245.662H107.389C113.089 245.662 117.727 250.3 117.727 256C117.727 261.7 113.089 266.338 107.389 266.338H69.546ZM69.546 355.085C63.846 355.085 59.208 350.447 59.208 344.747C59.208 339.047 63.846 334.409 69.546 334.409H107.389C113.089 334.409 117.727 339.047 117.727 344.747C117.727 350.447 113.089 355.085 107.389 355.085H69.546ZM69.546 443.83C63.846 443.83 59.208 439.193 59.208 433.493C59.208 427.793 63.846 423.155 69.546 423.155H107.389C113.089 423.155 117.727 427.793 117.727 433.493C117.727 439.193 113.089 443.83 107.389 443.83H69.546ZM157.439 496.995H109.677C102.119 496.995 95.97 490.847 95.97 483.288V458.835H107.389C121.363 458.835 132.732 447.466 132.732 433.493C132.732 419.519 121.363 408.15 107.389 408.15H95.97V370.09H107.389C121.363 370.09 132.732 358.721 132.732 344.747C132.732 330.773 121.363 319.404 107.389 319.404H95.97V281.344H107.389C121.363 281.344 132.732 269.975 132.732 256.001C132.732 242.027 121.363 230.658 107.389 230.658H95.97V192.598H107.389C121.363 192.598 132.732 181.229 132.732 167.255C132.732 153.281 121.363 141.912 107.389 141.912H95.97V103.852H107.389C121.363 103.852 132.732 92.483 132.732 78.509C132.732 64.536 121.363 53.167 107.389 53.167H95.97V28.711C95.97 21.153 102.119 15.004 109.677 15.004H157.439V496.995Z" fill="#45A29E" stroke="#45A29E" stroke-width="2" mask="url(#path-4-inside-1)"/>
</svg>
