<svg width="512" height="512" viewBox="0 0 512 512" fill="none" xmlns="http://www.w3.org/2000/svg">
<g clip-path="url(#clip0)">
<g filter="url(#filter0_d)">
<path d="M459.648 189.473V189.694L459.811 189.843L503.064 229.254C510.99 236.475 513.606 247.597 509.736 257.594C505.863 267.59 496.438 274.047 485.718 274.047H449.021H448.521V274.547V484.268C448.522 492.308 442.004 498.825 433.965 498.825H308.057C300.017 498.825 293.5 492.307 293.5 484.268V356.931V356.431H293H218.999H218.499V356.931V484.267C218.499 492.307 211.981 498.824 203.942 498.824H78.029C69.9891 498.824 63.472 492.306 63.472 484.267V274.546V274.046H62.972H26.283C15.5624 274.046 6.13763 267.59 2.26523 257.593C-1.60621 247.597 1.01134 236.475 8.93473 229.255L238.653 19.9356L238.316 19.566L238.653 19.9355C248.541 10.9225 263.454 10.9215 273.346 19.9366L273.683 19.567L273.346 19.9366L325.582 67.5336L326.419 68.296V67.164V58.79C326.419 50.7502 332.937 44.233 340.976 44.233H445.091C453.131 44.233 459.648 50.7511 459.648 58.79V189.473ZM418.908 469.711H419.408V469.211V259.49C419.408 251.45 425.926 244.933 433.965 244.933H475.755H477.046L476.092 244.063L435.289 206.883C432.261 204.124 430.536 200.219 430.536 196.123V73.847V73.347H430.036H356.034H355.534V73.847V101.254C355.534 107.018 352.132 112.241 346.859 114.571C341.587 116.898 335.435 115.897 331.174 112.014L256.338 43.8234L256.001 43.5166L255.664 43.8234L35.9082 244.063L34.9539 244.933H36.245H78.028C86.0678 244.933 92.585 251.451 92.585 259.49V469.211V469.711H93.085H188.885H189.385V469.211V341.874C189.385 333.834 195.903 327.317 203.942 327.317H308.058C316.097 327.317 322.615 333.835 322.615 341.874V469.211V469.711H323.115H418.908Z" fill="#45A29E" stroke="#45A29E"/>
</g>
</g>
<defs>
<filter id="filter0_d" x="-3.99988" y="12.6755" width="520" height="494.65" filterUnits="userSpaceOnUse" color-interpolation-filters="sRGB">
<feFlood flood-opacity="0" result="BackgroundImageFix"/>
<feColorMatrix in="SourceAlpha" type="matrix" values="0 0 0 0 0 0 0 0 0 0 0 0 0 0 0 0 0 0 127 0"/>
<feOffset dy="4"/>
<feGaussianBlur stdDeviation="2"/>
<feColorMatrix type="matrix" values="0 0 0 0 0 0 0 0 0 0 0 0 0 0 0 0 0 0 0.25 0"/>
<feBlend mode="normal" in2="BackgroundImageFix" result="effect1_dropShadow"/>
<feBlend mode="normal" in="SourceGraphic" in2="effect1_dropShadow" result="shape"/>
</filter>
<clipPath id="clip0">
<rect width="512" height="512" fill="white"/>
</clipPath>
</defs>
</svg>
