<svg width="512" height="512" viewBox="0 0 512 512" fill="none" xmlns="http://www.w3.org/2000/svg">
<path d="M504.5 49.692H270.764V7.5C270.764 3.358 267.407 0 263.264 0H216.471C212.329 0 208.971 3.358 208.971 7.5V49.692H117.189C113.047 49.692 109.689 53.05 109.689 57.192V121.674C104.739 124.312 100.048 127.78 96.098 131.772V109.729C96.098 96.132 82.571 84.967 62.451 81.26V64.979C62.451 60.837 59.093 57.479 54.951 57.479C41.673 57.479 28.173 62.584 17.912 71.485C6.362 81.505 0 95.413 0 110.646V142.069C0 151.766 15 151.766 15 142.069V110.646C15 94.229 27.217 76.648 47.451 73.117V360.821C35.681 362.292 23.661 367 15.03 375.295C15.014 365.082 15 181.923 15 181.923C15 172.226 0 172.226 0 181.923V414.888C0 415.309 0.043 415.719 0.11 416.121C0.847 438.12 21.2 454.56 48.049 454.56C61.048 454.56 72.678 450.86 81.245 444.763L81.249 472.336C81.253 497.68 106.6 512 129.305 512C153.405 511.996 177.347 498.423 177.347 472.32L177.33 366.282H390.92L235.288 498.79C230.085 503.219 233.317 512 240.15 512H466.018C470.161 512 473.518 508.642 473.518 504.5V468.118C473.518 458.421 458.518 458.421 458.518 468.118V497H260.529L458.518 328.431V426.742C458.518 436.439 473.518 436.439 473.518 426.742V366.284H504.5C508.643 366.284 512 362.926 512 358.784V254.1V57.192C512 53.05 508.643 49.692 504.5 49.692V49.692ZM497 64.692V246.6H321.348V64.692H497ZM255.764 15V206.945H223.971V187.778H229.417C239.114 187.778 239.114 172.778 229.417 172.778H223.971V153.125H236.417C246.114 153.125 246.114 138.125 236.417 138.125H223.971V118.472H229.417C233.559 118.472 236.917 115.114 236.917 110.972C236.917 106.83 233.559 103.472 229.417 103.472H223.971V83.819H236.417C246.114 83.819 246.114 68.819 236.417 68.819H223.971V49.167H229.417C239.114 49.167 239.114 34.167 229.417 34.167H223.971V15H255.764ZM118.46 133.78C121.698 132.248 125.094 131.174 128.647 130.557L128.693 418.261C120.338 419.307 106.832 422.589 96.274 432.74C96.257 422.667 96.241 414.87 96.241 414.658L96.201 168.091C96.199 154.652 104.389 140.436 118.46 133.78V133.78ZM162.344 450.435C162.091 450.29 161.836 450.147 161.577 450.005C152.975 445.283 141.744 442.649 129.891 442.565L129.89 433.241C133.484 432.746 135.898 432.783 135.956 432.783C140.652 432.469 143.231 429.97 143.693 425.286L143.65 154.085C153.592 156.545 162.298 161.585 162.299 167.164L162.344 450.435ZM81.098 109.729V357.215V392.899C72.741 388.1 61.448 385.212 48.647 385.126V375.8C52.243 375.305 54.657 375.343 54.713 375.344C59.409 375.03 61.988 372.531 62.451 367.848V96.599C73.875 99.334 81.098 105.006 81.098 109.729V109.729ZM81.098 418.44C81.098 429.888 65.963 439.56 48.049 439.56C29.251 439.56 15.075 428.954 15.075 414.888C15.075 400.644 20.238 387.153 33.647 380.34V392.95C34.181 397.856 36.916 400.345 41.851 400.417C52.273 399.436 63.794 400.602 73.112 405.718C78.489 408.671 81.536 412.421 81.098 418.44V418.44ZM129.303 497C129.3 497 129.299 497 129.295 497C110.502 497 96.326 486.396 96.324 472.334C96.322 458.091 101.482 444.597 114.891 437.782L114.893 450.393C115.428 455.298 118.163 457.787 123.097 457.858C135.82 456.662 162.958 458.704 162.348 475.874C162.35 487.323 147.217 496.998 129.303 497V497ZM177.299 167.16C177.297 153.658 163.725 142.427 143.647 138.704L143.644 122.416C143.214 117.845 140.714 115.345 136.143 114.917C132.315 114.918 128.471 115.356 124.689 116.174V64.692H208.971V214.444C208.971 218.586 212.329 221.944 216.471 221.944H263.264C267.407 221.944 270.764 218.586 270.764 214.444V64.692H306.348V254.1V351.283H177.329L177.299 167.16ZM469.163 305.386C466.507 304.159 463.382 304.587 461.155 306.484L408.538 351.283H321.348V261.6H497V351.283H473.518V312.195C473.518 309.271 471.818 306.613 469.163 305.386V305.386Z" fill="#45A29E"/>
<path d="M357.34 214.917H426.445C428.419 214.917 430.363 214.109 431.756 212.712L466.308 178.187C467.716 176.78 468.507 174.871 468.507 172.881L468.497 103.874C468.497 99.816 465.054 96.375 460.996 96.375L391.882 96.383C389.895 96.383 387.987 97.173 386.582 98.578L352.044 133.089C350.65 134.479 349.839 136.433 349.839 138.4V207.417C349.84 211.56 353.198 214.917 357.34 214.917V214.917ZM364.84 145.9H418.945V199.917H364.84V145.9ZM433.946 189.321V141.509L453.502 121.969L453.509 169.775L433.946 189.321ZM394.99 111.383L442.88 111.377L423.341 130.9H375.456L394.99 111.383Z" fill="#45A29E"/>
<path d="M392.813 314.087H367.962C358.265 314.087 358.265 329.087 367.962 329.087H392.813C402.51 329.087 402.51 314.087 392.813 314.087Z" fill="#45A29E"/>
<path d="M431.639 284.242H367.962C358.265 284.242 358.265 299.242 367.962 299.242H431.639C441.336 299.242 441.336 284.242 431.639 284.242Z" fill="#45A29E"/>
<path d="M424.727 385.308L334.172 462.408C328.971 466.837 332.202 475.618 339.034 475.618H429.589C433.732 475.618 437.089 472.26 437.089 468.118V391.018C437.089 385.316 429.887 380.913 424.727 385.308V385.308ZM422.089 460.618H359.412L422.089 407.254V460.618Z" fill="#45A29E"/>
<rect x="0.5" y="0.5" width="511" height="511" stroke="#0B0C10"/>
</svg>
