<svg width="512" height="512" viewBox="0 0 512 512" fill="none" xmlns="http://www.w3.org/2000/svg">
<path d="M467.238 309.746V493.263C467.238 497.798 464.432 503.071 461.257 506.189C458.054 509.335 452.725 512 448.189 512H396.372H344.498C339.991 512 334.633 509.25 331.515 506.189C328.255 502.986 325.534 497.742 325.534 493.122V309.746C317.37 308.215 310.029 304.19 304.387 298.519C296.734 290.866 292.567 280.632 292.567 269.917V168.777C292.567 154.009 298.576 140.572 308.299 130.849C318.022 121.125 331.429 115.087 346.198 115.087H352.095C345.802 106.243 342.117 95.442 342.117 83.82V33.704C342.117 24.463 345.915 16.044 352.01 9.922C358.132 3.799 366.551 0 375.792 0H416.98C426.221 0 434.64 3.799 440.763 9.922C446.857 16.044 450.656 24.463 450.656 33.704V83.821C450.656 95.443 446.971 106.244 440.678 115.088H446.574C461.343 115.088 474.75 121.126 484.474 130.85C494.197 140.573 500.234 154.009 500.234 168.778V269.919C500.234 281.088 495.699 291.207 488.385 298.521C482.743 304.19 475.401 308.215 467.238 309.746ZM92.781 237.121C95.7 234.201 100.463 234.201 103.383 237.121C106.302 240.041 106.302 244.803 103.383 247.723L76.227 274.907C73.279 277.827 68.545 277.827 65.625 274.907L48.306 257.588C45.386 254.668 45.386 249.905 48.306 246.986C51.254 244.066 55.988 244.066 58.936 246.986L70.926 258.976L92.781 237.121ZM92.781 386.395C95.7 383.475 100.463 383.475 103.383 386.395C106.302 389.316 106.302 394.078 103.383 396.998L76.227 424.183C73.279 427.103 68.545 427.103 65.625 424.183L48.306 406.863C45.386 403.944 45.386 399.181 48.306 396.261C51.254 393.342 55.988 393.342 58.936 396.261L70.926 408.252L92.781 386.395ZM92.781 87.847C95.7 84.927 100.463 84.927 103.383 87.847C106.302 90.767 106.302 95.529 103.383 98.448L76.227 125.604C73.279 128.552 68.545 128.552 65.625 125.604L48.306 108.312C45.386 105.393 45.386 100.63 48.306 97.71C51.254 94.791 55.988 94.791 58.936 97.71L70.926 109.701L92.781 87.847ZM435.66 68.231C423.443 70.214 402.24 70.584 384.977 54.908C379.08 58.479 369.216 62.76 357.112 61.371V83.821C357.112 94.622 361.534 104.429 368.649 111.545C375.764 118.688 385.6 123.109 396.372 123.109C407.172 123.109 416.98 118.687 424.123 111.545C431.238 104.43 435.66 94.622 435.66 83.821V68.231ZM357.112 46.263C365.588 47.793 374.488 45.044 380.923 39.43C384.041 36.709 388.775 37.049 391.496 40.167C406.038 56.893 426.362 55.021 435.66 53.037V33.704C435.66 28.545 433.562 23.868 430.161 20.466C426.787 17.093 422.139 14.995 416.98 14.995H375.792C370.633 14.995 365.984 17.093 362.611 20.466C359.21 23.868 357.112 28.545 357.112 33.704V46.263ZM368.082 130.084H346.198C335.568 130.084 325.902 134.449 318.901 141.451C311.644 148.736 307.505 158.487 307.505 168.777V269.89C307.505 276.608 310.17 283.157 314.988 287.975C319.552 292.567 325.901 295.43 332.931 295.43H345.517V188.96C345.517 184.821 348.89 181.448 353.029 181.448C357.168 181.448 360.512 184.821 360.512 188.96V295.43H432.257V188.96C432.257 184.821 435.602 181.448 439.74 181.448C443.879 181.448 447.252 184.821 447.252 188.96V295.43H459.838C466.868 295.43 473.189 292.567 477.781 287.975C482.402 283.383 485.236 276.977 485.236 269.918V168.777C485.236 158.147 480.899 148.48 473.869 141.451C466.867 134.449 457.201 130.084 446.571 130.084H424.659C416.411 135.158 406.745 138.106 396.37 138.106C386.025 138.106 376.331 135.158 368.082 130.084ZM161.691 380.726C157.552 380.726 154.179 377.381 154.179 373.243C154.179 369.105 157.552 365.731 161.691 365.731H255.262C259.401 365.731 262.746 369.104 262.746 373.243C262.746 377.382 259.401 380.726 255.262 380.726H161.691ZM161.691 444.817C157.552 444.817 154.179 441.472 154.179 437.334C154.179 433.195 157.552 429.822 161.691 429.822H224.818C228.957 429.822 232.33 433.195 232.33 437.334C232.33 441.473 228.957 444.817 224.818 444.817H161.691ZM161.691 412.786C157.552 412.786 154.179 409.413 154.179 405.274C154.179 401.135 157.552 397.791 161.691 397.791H255.262C259.401 397.791 262.746 401.136 262.746 405.274C262.746 409.413 259.401 412.786 255.262 412.786H161.691ZM161.691 231.452C157.552 231.452 154.179 228.107 154.179 223.969C154.179 219.83 157.552 216.457 161.691 216.457H255.262C259.401 216.457 262.746 219.83 262.746 223.969C262.746 228.108 259.401 231.452 255.262 231.452H161.691ZM161.691 295.543C157.552 295.543 154.179 292.198 154.179 288.06C154.179 283.921 157.552 280.548 161.691 280.548H224.818C228.957 280.548 232.33 283.921 232.33 288.06C232.33 292.199 228.957 295.543 224.818 295.543H161.691ZM161.691 263.512C157.552 263.512 154.179 260.139 154.179 256C154.179 251.861 157.552 248.517 161.691 248.517H255.262C259.401 248.517 262.746 251.862 262.746 256C262.746 260.138 259.401 263.512 255.262 263.512H161.691ZM161.691 82.178C157.552 82.178 154.179 78.833 154.179 74.695C154.179 70.556 157.552 67.183 161.691 67.183H255.262C259.401 67.183 262.746 70.556 262.746 74.695C262.746 78.834 259.401 82.178 255.262 82.178H161.691ZM161.691 146.27C157.552 146.27 154.179 142.925 154.179 138.787C154.179 134.62 157.552 131.275 161.691 131.275H224.818C228.957 131.275 232.33 134.62 232.33 138.787C232.33 142.926 228.957 146.27 224.818 146.27H161.691ZM161.691 114.237C157.552 114.237 154.179 110.864 154.179 106.725C154.179 102.586 157.552 99.242 161.691 99.242H255.262C259.401 99.242 262.746 102.587 262.746 106.725C262.746 110.863 259.401 114.237 255.262 114.237H161.691ZM11.767 355.129C11.767 347.446 18.031 341.21 25.685 341.21H126.003C133.685 341.21 139.95 347.446 139.95 355.129V455.447C139.95 463.101 133.657 469.365 126.003 469.365H25.685C18.06 469.365 11.767 463.072 11.767 455.447V355.129ZM124.926 356.206H26.762V454.37H124.926V356.206ZM11.767 56.581C11.767 48.927 18.06 42.634 25.685 42.634H126.003C133.657 42.634 139.95 48.927 139.95 56.581V156.899C139.95 164.553 133.657 170.817 126.003 170.817H25.685C18.031 170.817 11.767 164.553 11.767 156.899V56.581ZM124.926 57.658H26.762V155.822H124.926V57.658ZM11.767 205.855C11.767 198.201 18.031 191.937 25.685 191.937H126.003C133.685 191.937 139.95 198.172 139.95 205.855V306.174C139.95 313.828 133.685 320.093 126.003 320.093H25.685C18.031 320.093 11.767 313.828 11.767 306.174V205.855ZM124.926 206.932H26.762V305.097H124.926V206.932ZM388.888 497.005V343.847C388.888 339.708 392.233 336.364 396.371 336.364C400.538 336.364 403.883 339.709 403.883 343.847V497.005H447.848C450.031 496.607 451.817 494.992 452.242 492.81V310.426C414.994 310.426 377.776 310.426 340.529 310.426V492.81C340.954 494.993 342.74 496.608 344.923 497.005H388.888Z" fill="#45A29E"/>
</svg>
