<svg width="512" height="512" viewBox="0 0 512 512" fill="none" xmlns="http://www.w3.org/2000/svg">
<path d="M42.6667 331.563V496C42.6667 504.832 49.8347 512 58.6667 512H453.333C462.165 512 469.333 504.832 469.333 496V331.563C469.333 310.4 437.333 310.379 437.333 331.563V480H74.6667V331.563C74.6667 310.4 42.6667 310.4 42.6667 331.563Z" fill="#45A29E"/>
<path d="M141.76 429.781H349.483C370.645 429.781 370.667 397.781 349.483 397.781H141.76C120.597 397.781 120.576 429.781 141.76 429.781V429.781Z" fill="#45A29E"/>
<path d="M141.675 331.072C358.272 375.424 345.152 373.163 348.309 373.163C367.445 373.163 370.283 345.344 351.509 341.483L148.117 299.712C127.381 295.467 120.917 326.805 141.675 331.072V331.072Z" fill="#45A29E"/>
<path d="M167.552 220.288C362.133 316.8 352.981 314.603 360.107 314.603C376.96 314.603 382.293 291.797 367.253 284.288L181.845 191.659C162.965 182.187 148.608 210.816 167.552 220.288V220.288Z" fill="#45A29E"/>
<path d="M214.869 136.96L377.344 261.995C393.856 274.731 413.867 249.728 396.864 236.651L234.389 111.616C217.621 98.6667 198.08 124.053 214.869 136.96V136.96Z" fill="#45A29E"/>
<path d="M441.536 198.592L319.467 38.3147C306.667 21.4827 281.173 40.8533 294.016 57.7067L416.085 217.984C428.8 234.709 454.464 215.573 441.536 198.592Z" fill="#45A29E"/>
</svg>
